<svg width="32" height="24" viewBox="0 0 32 24" fill="none" xmlns="http://www.w3.org/2000/svg">
<path d="M0 1.33333C0 0.6 0.6 0 1.33333 0H24C24.7333 0 25.3333 0.6 25.3333 1.33333C25.3333 2.06667 24.7333 2.66667 24 2.66667H1.33333C0.6 2.66667 0 2.06667 0 1.33333ZM24 21.3333H1.33333C0.6 21.3333 0 21.9333 0 22.6667C0 23.4 0.6 24 1.33333 24H24C24.7333 24 25.3333 23.4 25.3333 22.6667C25.3333 21.9333 24.7333 21.3333 24 21.3333ZM30.6667 10.6667H8C7.26667 10.6667 6.66667 11.2667 6.66667 12C6.66667 12.7333 7.26667 13.3333 8 13.3333H30.6667C31.4 13.3333 32 12.7333 32 12C32 11.2667 31.4 10.6667 30.6667 10.6667Z" fill="#414535"/>
</svg>
