<svg width="32" height="32" viewBox="0 0 32 32" fill="none" xmlns="http://www.w3.org/2000/svg">
<g clip-path="url(#clip0_3_706)">
<path d="M12.772 12.7637C12.772 11.4997 11.7933 11.1997 10.7067 11.1997H7.87866V14.3997H10.928C12.0067 14.3997 12.772 13.9277 12.772 12.7637Z" fill="#E4D5C4"/>
<path d="M22.2213 14.4214C20.9146 14.4214 20.0426 15.2361 19.9573 16.5427H24.3999C24.2786 15.2214 23.5933 14.4214 22.2213 14.4214Z" fill="#E4D5C4"/>
<path d="M11.1573 16.6787H7.87195V20.4574H11.0933C12.3226 20.4574 13.3226 20.0214 13.3226 18.6427C13.3213 17.236 12.4853 16.6854 11.1573 16.6787Z" fill="#E4D5C4"/>
<path d="M26.3333 0.399902H5.66667C2.53333 0.399902 0 2.93324 0 6.06657V25.9332C0 29.0666 2.53333 31.5999 5.66667 31.5999H26.3333C29.4667 31.5999 32 29.0666 32 25.9332V6.06657C32 2.93324 29.4667 0.399902 26.3333 0.399902ZM19.4067 9.57857H24.964V10.9279H19.4067V9.57857ZM11.5067 22.7999H4.85733V9.08524H11.3213C13.672 9.08524 15.7067 9.74924 15.7067 12.4772C15.7067 13.8559 15.064 14.5346 13.8347 15.1199C15.52 15.5986 16.3347 17.0852 16.3347 18.8066C16.336 21.5932 14 22.7852 11.5067 22.7999ZM27.1213 18.2639H19.964C19.964 19.8492 20.8 20.7852 22.4 20.7852C23.228 20.7852 24.2933 20.3426 24.5573 19.4919H26.964C26.2213 21.7706 24.6853 22.8346 22.3147 22.8346C19.1867 22.8346 17.236 20.7132 17.236 17.6199C17.236 14.6346 19.2867 12.3639 22.3147 12.3639C25.4213 12.3639 27.1427 14.8132 27.1427 17.7492C27.1427 17.9212 27.128 18.0999 27.1213 18.2639Z" fill="#E4D5C4"/>
</g>
<defs>
<clipPath id="clip0_3_706">
<rect width="32" height="32" fill="white"/>
</clipPath>
</defs>
</svg>
