<svg width="32" height="32" viewBox="0 0 32 32" fill="none" xmlns="http://www.w3.org/2000/svg">
<g clip-path="url(#clip0_3_712)">
<path fill-rule="evenodd" clip-rule="evenodd" d="M16 0C7.16667 0 0 7.16667 0 16C0 24.8333 7.16667 32 16 32C24.816 32 32 24.8333 32 16C32 7.16667 24.816 0 16 0ZM26.568 7.37467C28.4773 9.7 29.6227 12.668 29.6573 15.8787C29.2067 15.792 24.6947 14.872 20.1467 15.444C20.0427 15.2187 19.956 14.976 19.852 14.7333C19.5747 14.0733 19.2613 13.3973 18.9493 12.7547C23.9827 10.7067 26.2733 7.75733 26.568 7.37467ZM17.8907 10.724C15.652 6.612 13.1707 3.244 12.7893 2.724C13.8133 2.48133 14.8893 2.36 16 2.36C19.4707 2.36 22.6467 3.66133 25.0587 5.796C24.816 6.14267 22.7507 8.90267 17.8907 10.724ZM10.1867 3.644C10.5507 4.12933 12.98 7.51333 15.2533 11.54C8.86667 13.24 3.22667 13.2067 2.62 13.2067C3.50533 8.972 6.36933 5.44933 10.1867 3.644ZM2.32533 15.6C2.91467 15.6173 9.544 15.704 16.364 13.6573C16.764 14.42 17.128 15.2013 17.4747 15.9827C17.3013 16.0347 17.1107 16.0867 16.936 16.1387C9.89067 18.412 6.14267 24.6253 5.82933 25.1453C3.66 22.7333 2.324 19.5227 2.324 16.0173L2.32533 15.6ZM18.3427 18.256C18.3773 18.2387 18.3947 18.2387 18.4293 18.2213C20.356 23.2013 21.1373 27.384 21.3453 28.5813C19.696 29.2933 17.892 29.6747 16 29.6747C12.8413 29.6747 9.92667 28.5987 7.61867 26.7947C7.86133 26.2907 10.6373 20.9453 18.3427 18.256ZM23.6187 27.332C23.48 26.4987 22.7507 22.508 20.964 17.596C25.2507 16.92 28.9987 18.0307 29.4667 18.1867C28.876 21.9867 26.6907 25.2667 23.6187 27.332Z" fill="#E4D5C4"/>
</g>
<defs>
<clipPath id="clip0_3_712">
<rect width="32" height="32" fill="white"/>
</clipPath>
</defs>
</svg>
